<svg xmlns="http://www.w3.org/2000/svg" version="1.0" width="800.000000pt" height="1280.000000pt"
    viewBox="0 0 800.000000 1280.000000" preserveAspectRatio="xMidYMid meet">
    <g transform="translate(0.000000,1280.000000) scale(0.100000,-0.100000)" fill="#000000"
        stroke="none">
        <path
            d="M4255 11641 c-164 -27 -269 -144 -414 -466 -59 -131 -69 -166 -87 -283 -17 -117 -13 -177 18 -261 18 -48 20 -70 15 -225 -5 -188 -26 -293 -87 -453 -37 -97 -28 -94 -183 -62 -144 30 -297 23 -461 -20 -65 -17 -120 -30 -121 -29 -1 2 -12 32 -23 66 -64 191 -226 362 -344 362 -41 0 -57 -16 -86 -83 -19 -42 -21 -64 -18 -178 2 -98 -1 -132 -11 -140 -7 -6 -13 -26 -13 -45 0 -31 -3 -34 -42 -44 -24 -6 -59 -16 -78 -21 -67 -19 -376 -23 -475 -6 -112 20 -288 103 -314 149 -9 16 -31 34 -48 40 -18 7 -35 19 -38 27 -7 19 -54 53 -111 80 -23 10 -44 26 -47 34 -3 9 -25 18 -54 23 -31 4 -59 17 -81 35 -18 16 -52 39 -75 50 -23 12 -56 32 -73 45 -17 13 -46 26 -65 29 -69 12 -105 29 -137 66 -42 48 -72 149 -73 249 0 41 -10 131 -22 200 -18 101 -26 125 -40 128 -10 2 -25 -2 -33 -9 -13 -10 -15 -35 -11 -148 3 -100 2 -129 -6 -111 -24 58 -181 310 -193 310 -7 0 -18 -8 -23 -18 -11 -21 20 -118 67 -210 30 -58 76 -191 69 -198 -2 -2 -12 15 -23 38 -17 40 -37 73 -138 231 -38 59 -58 69 -79 36 -8 -13 8 -55 71 -187 45 -93 82 -174 82 -178 0 -10 -33 27 -92 106 -64 84 -89 109 -104 103 -30 -11 -12 -60 62 -173 77 -119 120 -226 109 -273 -4 -12 1 -43 9 -67 12 -39 37 -155 53 -255 16 -97 172 -221 310 -246 32 -6 103 -32 158 -59 55 -27 129 -59 165 -73 36 -13 92 -38 125 -54 77 -39 186 -76 322 -110 101 -25 123 -27 333 -28 124 0 348 4 498 9 l273 9 25 -24 c25 -23 26 -23 55 -6 37 21 69 8 69 -27 0 -30 20 -47 56 -45 16 0 39 -2 51 -6 27 -9 48 27 58 99 l8 48 61 -7 c84 -9 141 -36 161 -75 35 -68 29 -192 -15 -315 -30 -82 -50 -186 -52 -259 0 -37 -7 -81 -15 -96 -11 -24 -12 -56 -4 -187 6 -87 14 -183 19 -213 11 -74 7 -181 -8 -210 -7 -13 -10 -38 -6 -60 5 -30 2 -41 -18 -59 -13 -13 -27 -39 -31 -58 -3 -20 -15 -52 -26 -72 -10 -20 -19 -41 -19 -48 0 -7 -11 -13 -25 -13 -29 0 -64 -35 -72 -72 -3 -16 -9 -28 -14 -28 -14 0 -46 -71 -64 -141 -9 -35 -34 -91 -55 -124 -73 -113 -121 -247 -151 -418 -9 -57 -14 -67 -29 -62 -21 7 -40 -15 -44 -49 -1 -13 -7 -31 -13 -38 -21 -26 -26 -189 -9 -309 9 -63 20 -176 25 -251 5 -75 14 -145 20 -157 6 -11 11 -33 11 -48 0 -16 5 -34 12 -41 14 -14 15 -20 28 -135 13 -126 120 -646 181 -882 82 -318 107 -428 140 -620 34 -199 49 -271 78 -366 16 -50 22 -117 30 -314 13 -311 31 -460 82 -706 22 -107 59 -291 84 -409 24 -118 60 -285 81 -370 26 -110 39 -192 45 -285 5 -71 9 -137 10 -145 2 -28 -14 -125 -22 -136 -5 -6 -3 -24 3 -41 11 -29 9 -34 -26 -73 -31 -34 -37 -48 -32 -70 4 -23 -4 -39 -52 -97 -46 -54 -64 -68 -86 -68 -31 -1 -54 -25 -63 -67 -3 -18 -31 -48 -79 -89 -54 -45 -76 -71 -84 -97 -6 -24 -6 -40 1 -48 8 -10 3 -17 -20 -29 -31 -16 -61 -69 -61 -108 0 -11 19 -45 43 -76 51 -68 222 -250 256 -273 68 -47 218 -27 376 51 55 27 130 58 166 70 101 33 105 39 134 240 14 95 25 188 25 207 0 50 -24 91 -63 105 l-33 12 18 35 c10 20 18 53 18 73 0 20 7 42 15 49 17 14 20 66 4 76 -6 3 -9 20 -6 37 2 17 -2 46 -9 64 -8 18 -14 45 -14 59 0 15 -7 36 -16 46 -15 15 -15 23 -4 61 10 37 9 49 -3 73 -9 18 -15 61 -16 115 0 48 -6 100 -12 115 -12 32 -28 204 -18 204 15 0 52 -155 59 -255 10 -126 13 -136 70 -265 69 -154 116 -209 195 -231 58 -16 112 5 171 65 107 110 116 247 36 533 -16 56 -25 107 -21 114 14 23 -17 89 -41 89 -26 0 -85 159 -86 235 -1 33 -7 96 -13 140 -7 44 -12 125 -11 180 1 108 5 125 150 570 76 233 90 301 97 470 5 130 4 144 -17 193 -20 46 -21 57 -11 95 6 23 18 111 26 195 19 193 25 232 80 499 25 119 61 311 80 427 38 233 68 386 84 429 6 16 11 57 11 93 0 43 5 73 16 90 9 13 14 27 10 31 -3 4 0 13 8 22 7 9 16 34 19 56 3 22 10 65 15 95 6 30 11 107 11 170 1 63 9 156 17 205 10 54 14 112 10 145 -4 30 -6 72 -6 93 1 20 -4 37 -9 37 -5 0 -11 15 -13 33 -2 21 -10 35 -24 41 -18 8 -23 24 -32 88 -13 87 -46 193 -98 311 -30 69 -34 88 -34 163 0 61 -4 86 -13 90 -9 3 -12 16 -9 34 5 36 -21 80 -47 80 -15 0 -19 11 -25 53 -3 28 -6 68 -6 88 0 21 -7 42 -15 49 -9 8 -13 20 -9 29 3 9 8 55 10 102 4 102 26 167 109 325 39 76 52 111 46 122 -6 11 -2 25 13 45 15 21 21 44 22 85 2 91 74 311 124 382 26 37 47 38 83 5 31 -30 32 -33 12 -62 -24 -34 -46 -106 -41 -129 3 -12 31 -42 63 -68 49 -41 61 -47 89 -41 27 5 34 2 39 -15 3 -11 18 -23 33 -27 15 -3 32 -12 37 -19 6 -7 64 -81 129 -166 228 -292 348 -440 406 -498 120 -120 299 -238 472 -311 57 -23 135 -60 175 -81 39 -22 119 -56 178 -78 59 -21 148 -63 198 -94 51 -30 112 -62 136 -71 49 -17 142 -20 169 -6 30 17 185 82 234 98 25 8 48 23 51 32 7 29 90 45 207 41 197 -7 212 -7 224 13 14 23 -1 33 -63 42 -25 3 -71 11 -101 18 l-55 11 35 8 c19 4 91 4 160 1 110 -5 128 -4 143 11 37 38 15 52 -105 65 -54 6 -104 11 -113 11 -9 0 -13 5 -9 11 3 6 17 8 31 4 14 -3 76 -6 136 -6 114 1 147 11 135 43 -5 13 -164 43 -303 57 -59 6 -60 6 -35 22 75 47 149 89 158 89 5 0 21 9 36 21 30 24 36 69 9 69 -27 0 -239 -86 -310 -126 -35 -19 -93 -44 -129 -53 -55 -16 -71 -17 -117 -6 -64 15 -89 27 -143 72 -40 32 -66 42 -244 93 -41 12 -106 37 -145 56 -38 19 -81 34 -95 34 -14 0 -36 7 -48 16 -25 17 -120 44 -158 44 -14 0 -36 7 -49 16 -15 10 -36 14 -52 11 -36 -7 -180 44 -263 93 -76 44 -191 159 -279 279 -68 92 -85 123 -124 219 l-26 63 29 11 c23 8 30 16 30 37 0 16 16 45 41 76 41 49 69 96 69 114 0 5 15 24 33 42 39 40 70 150 48 172 -22 21 -167 13 -251 -15 -42 -14 -114 -28 -163 -32 -49 -4 -94 -9 -100 -12 -8 -3 -25 26 -46 73 -48 115 -117 228 -178 294 -41 44 -78 70 -156 110 -86 44 -123 66 -199 119 -9 7 42 313 76 452 30 125 92 237 157 285 54 39 86 78 121 148 32 64 41 101 29 123 -6 12 -5 38 4 77 7 33 23 102 34 154 48 215 10 470 -85 584 -34 40 -140 112 -213 144 -31 14 -75 34 -97 44 -33 16 -71 20 -185 24 -79 2 -166 0 -194 -4z m-428 -723 c-3 -8 -6 -5 -6 6 -1 11 2 17 5 13 3 -3 4 -12 1 -19z m19 -415 c10 -54 43 -143 67 -177 18 -25 19 -38 14 -120 -6 -89 -58 -308 -79 -333 -15 -19 -52 -17 -44 2 54 143 69 405 32 598 -7 37 -9 67 -5 67 5 0 11 -17 15 -37z m872 -234 c-18 -22 -43 -54 -54 -70 -30 -41 -39 -49 -24 -19 14 26 99 130 107 130 3 0 -10 -18 -29 -41z m-1034 -4661 c17 -203 27 -529 24 -820 -5 -571 -4 -657 14 -723 15 -54 15 -73 2 -185 -7 -69 -14 -154 -15 -190 -2 -62 -2 -63 -8 -20 -4 25 -12 55 -19 67 -7 12 -12 30 -12 40 0 10 -7 31 -15 47 -8 15 -15 41 -15 57 0 19 -9 37 -25 51 l-25 22 -1 195 c0 108 -4 234 -10 281 -15 142 -22 587 -14 912 l7 307 42 10 c22 5 46 9 53 10 7 1 13 -23 17 -61z m77 -2654 c-7 -31 -9 -14 -9 76 l1 115 8 -76 c6 -45 5 -93 0 -115z" />
    </g>
</svg>